<svg width="143" height="51" viewBox="0 0 143 51" fill="none" xmlns="http://www.w3.org/2000/svg">
<path fill-rule="evenodd" clip-rule="evenodd" d="M136 34H143V27H136V34Z" fill="#B7BF10"/>
<path fill-rule="evenodd" clip-rule="evenodd" d="M129 41H136V34H129V41Z" fill="#B7BF10"/>
<path fill-rule="evenodd" clip-rule="evenodd" d="M122 34H129V27H122V34Z" fill="#B7BF10"/>
<path fill-rule="evenodd" clip-rule="evenodd" d="M136 48H143V41H136V48Z" fill="#B7BF10"/>
<path fill-rule="evenodd" clip-rule="evenodd" d="M122 41H129V48H122V41Z" fill="#B7BF10"/>
<path d="M49.5999 8.5C48.4999 8.5 47.4999 8.9 46.7999 9.7C46.0999 10.5 45.6999 11.5 45.6999 12.7C45.6999 13.9 46.0999 14.9 46.7999 15.7C47.5999 16.5 48.4999 16.9 49.6999 16.9C50.7999 16.9 51.7999 16.5 52.4999 15.7C53.1999 14.9 53.5999 13.9 53.5999 12.7C53.5999 11.5 53.1999 10.5 52.4999 9.7C51.6999 8.9 50.7999 8.5 49.5999 8.5ZM53.3999 5.4H56.9999V18.1C56.9999 20.6 56.4999 22.4 55.4999 23.6C54.1999 25.2 52.1999 26 49.4999 26C48.0999 26 46.8999 25.8 45.8999 25.5C44.8999 25.1 44.0999 24.6 43.3999 23.9C42.6999 23.2 42.1999 22.3 41.8999 21.3H45.8999C46.2999 21.7 46.6999 22 47.2999 22.2C47.8999 22.4 48.4999 22.5 49.2999 22.5C50.2999 22.5 51.0999 22.3 51.6999 22C52.2999 21.7 52.6999 21.3 52.9999 20.8C53.1999 20.3 53.3999 19.5 53.3999 18.3C52.7999 19 52.0999 19.4 51.3999 19.7C50.6999 20 49.8999 20.1 48.9999 20.1C47.0999 20.1 45.3999 19.4 44.0999 17.9C42.7999 16.5 42.0999 14.6 42.0999 12.5C42.0999 10.1 42.7999 8.3 44.1999 6.8C45.3999 5.6 46.9999 5 48.7999 5C49.5999 5 50.3999 5.2 51.1999 5.5C51.8999 5.8 52.6999 6.3 53.3999 7V5.4Z" fill="white"/>
<path fill-rule="evenodd" clip-rule="evenodd" d="M59 6.4H62.2V8.2C62.5 7.5 63 6.9 63.6 6.5C64.2 6.2 64.8 6 65.5 6C66 6 66.5 6.1 67 6.4L65.8 9.6C65.4 9.4 65 9.3 64.7 9.3C64.1 9.3 63.6 9.6 63.2 10.3C62.8 11 62.6 12.4 62.6 14.4V15.1V21H59V6.4Z" fill="white"/>
<path d="M75.5 9.3C74.4 9.3 73.4 9.7 72.7 10.5C72 11.3 71.6 12.3 71.6 13.5C71.6 14.7 72 15.7 72.7 16.5C73.5 17.3 74.4 17.7 75.5 17.7C76.6 17.7 77.6 17.3 78.3 16.5C79.1 15.7 79.4 14.7 79.4 13.4C79.4 12.2 79 11.2 78.3 10.4C77.6 9.7 76.7 9.3 75.5 9.3ZM79.4 6.4H83V20.7H79.4V19.2C78.7 19.9 78 20.3 77.3 20.6C76.6 20.9 75.8 21 75 21C73.1 21 71.5 20.3 70.1 18.9C68.7 17.5 68 15.7 68 13.6C68 11.4 68.7 9.6 70 8.2C71.3 6.7 72.9 6 74.8 6C75.7 6 76.5 6.2 77.2 6.5C77.9 6.8 78.7 7.3 79.3 8V6.4H79.4Z" fill="white"/>
<path d="M94.4 8.3C93.3 8.3 92.3 8.7 91.5 9.5C90.7 10.3 90.4 11.3 90.4 12.5C90.4 13.8 90.8 14.8 91.5 15.6C92.3 16.4 93.2 16.8 94.4 16.8C95.5 16.8 96.4 16.4 97.2 15.6C98 14.8 98.3 13.8 98.3 12.5C98.3 11.3 97.9 10.3 97.2 9.5C96.5 8.7 95.6 8.3 94.4 8.3ZM90.6 5.4V7C91.3 6.3 92 5.9 92.7 5.5C93.5 5.2 94.3 5 95.2 5C97.1 5 98.7 5.7 100 7.1C101.3 8.5 102 10.3 102 12.6C102 14.7 101.3 16.5 99.9 18C98.5 19.4 96.9 20.2 95 20.2C94.2 20.2 93.4 20.1 92.7 19.8C92 19.5 91.3 19 90.6 18.4V25H87V5.4H90.6Z" fill="white"/>
<path fill-rule="evenodd" clip-rule="evenodd" d="M105 0H108.7V7C109.4 6.4 110.1 5.9 110.9 5.6C111.6 5.3 112.4 5.1 113.1 5.1C114.6 5.1 115.8 5.6 116.8 6.6C117.7 7.5 118.1 8.7 118.1 10.4V20H114.5V13.7C114.5 12 114.4 10.9 114.3 10.3C114.1 9.7 113.9 9.3 113.5 9C113.1 8.7 112.6 8.6 112.1 8.6C111.4 8.6 110.7 8.8 110.2 9.3C109.7 9.8 109.3 10.5 109.1 11.3C109 11.7 108.9 12.7 108.9 14.3V20H105V0Z" fill="white"/>
<path d="M120.5 20H124.4V5.8H120.5V20ZM122.5 0C123.2 0 123.8 0.2 124.3 0.7C124.8 1.2 125 1.7 125 2.3C125 2.9 124.8 3.5 124.3 3.9C123.8 4.3 123.2 4.6 122.6 4.6C121.9 4.6 121.3 4.4 120.8 3.9C120.3 3.4 120.1 2.9 120.1 2.2C120.1 1.6 120.3 1 120.8 0.6C121.2 0.2 121.8 0 122.5 0Z" fill="white"/>
<path fill-rule="evenodd" clip-rule="evenodd" d="M142 9.29999L139 10.9C138.4 10.3 137.9 9.89999 137.3 9.69999C136.7 9.49999 136.1 9.39999 135.3 9.39999C133.9 9.39999 132.8 9.79999 132 10.6C131.2 11.4 130.7 12.4 130.7 13.7C130.7 14.9 131.1 15.9 131.9 16.7C132.7 17.5 133.8 17.9 135.1 17.9C136.7 17.9 138 17.4 138.9 16.3L141.8 18.2C140.2 20.2 138 21.2 135.2 21.2C132.6 21.2 130.6 20.5 129.2 19C127.7 17.5 127 15.8 127 13.8C127 12.4 127.4 11.1 128.1 9.99999C128.8 8.79999 129.8 7.89999 131.1 7.29999C132.4 6.59999 133.8 6.29999 135.3 6.29999C136.8 6.29999 138.1 6.59999 139.2 7.09999C140.3 7.39999 141.3 8.19999 142 9.29999Z" fill="white"/>
<path fill-rule="evenodd" clip-rule="evenodd" d="M50.7001 35.4L48.5001 37.6C47.6001 36.7 46.8001 36.3 46.1001 36.3C45.7001 36.3 45.4001 36.4 45.2001 36.6C45.0001 36.8 44.9001 37 44.9001 37.2C44.9001 37.4 45.0001 37.6 45.1001 37.7C45.2001 37.9 45.6001 38.1 46.2001 38.4L47.5001 39.1C48.9001 39.8 49.8001 40.5 50.3001 41.2C50.8001 41.9 51.1001 42.7 51.1001 43.7C51.1001 45 50.6001 46 49.7001 46.9C48.8001 47.7 47.5001 48.2 46.0001 48.2C43.9001 48.2 42.3001 47.4 41.1001 45.8L43.3001 43.4C43.7001 43.9 44.2001 44.3 44.8001 44.6C45.4001 44.9 45.9001 45.1 46.3001 45.1C46.8001 45.1 47.1001 45 47.4001 44.8C47.7001 44.6 47.8001 44.3 47.8001 44C47.8001 43.4 47.3001 42.9 46.3001 42.4L45.1001 41.8C42.8001 40.6 41.7001 39.2 41.7001 37.4C41.7001 36.3 42.1001 35.3 43.0001 34.5C43.9001 33.7 45.0001 33.3 46.3001 33.3C47.2001 33.3 48.1001 33.5 48.9001 33.9C49.5001 34 50.2001 34.6 50.7001 35.4Z" fill="white"/>
<path fill-rule="evenodd" clip-rule="evenodd" d="M54.9 28H58.7V33.4H61V36.5H58.7V48H54.9V36.5H53V33.4H54.9V28Z" fill="white"/>
<path fill-rule="evenodd" clip-rule="evenodd" d="M64 33H67.8V40C67.8 41.4 67.9 42.3 68.1 42.9C68.3 43.4 68.6 43.8 69 44.1C69.4 44.4 69.9 44.5 70.6 44.5C71.3 44.5 71.7 44.4 72.2 44.1C72.6 43.8 73 43.4 73.2 42.8C73.4 42.4 73.4 41.5 73.4 40.1V33H77V39.2C77 41.8 76.8 43.5 76.4 44.4C75.9 45.5 75.2 46.4 74.2 47C73.2 47.6 72 47.9 70.5 47.9C68.9 47.9 67.6 47.5 66.6 46.8C65.6 46.1 64.9 45.1 64.5 43.8C64.1 43 64 41.4 64 39.1V33Z" fill="white"/>
<path d="M86.4999 36.4C85.3999 36.4 84.3999 36.8 83.6999 37.6C82.9999 38.4 82.5999 39.4 82.5999 40.6C82.5999 41.8 82.9999 42.8 83.6999 43.6C84.4999 44.4 85.3999 44.8 86.4999 44.8C87.5999 44.8 88.5999 44.4 89.2999 43.6C90.0999 42.8 90.3999 41.8 90.3999 40.5C90.3999 39.3 89.9999 38.3 89.2999 37.5C88.5999 36.8 87.6999 36.4 86.4999 36.4ZM90.3999 28H93.9999V47.6H90.3999V46.1C89.6999 46.8 88.9999 47.2 88.2999 47.5C87.5999 47.8 86.6999 48 85.8999 48C83.9999 48 82.3999 47.3 80.9999 45.9C79.5999 44.5 78.8999 42.7 78.8999 40.6C78.8999 38.4 79.5999 36.6 80.8999 35.2C82.1999 33.8 83.7999 33.1 85.6999 33.1C86.5999 33.1 87.3999 33.3 88.0999 33.6C88.8999 33.9 89.5999 34.4 90.1999 35V28H90.3999Z" fill="white"/>
<path d="M97.5001 47H101.4V32.8H97.5001V47ZM99.5001 27C100.2 27 100.8 27.2 101.3 27.7C101.8 28.2 102 28.7 102 29.3C102 29.9 101.8 30.5 101.3 30.9C100.8 31.3 100.2 31.6 99.6001 31.6C98.9001 31.6 98.3001 31.4 97.8001 30.9C97.3001 30.4 97.1001 29.9 97.1001 29.2C97.1001 28.6 97.3001 28 97.8001 27.6C98.2001 27.2 98.8001 27 99.5001 27Z" fill="white"/>
<path d="M111.5 36.4C110.4 36.4 109.5 36.8 108.7 37.6C108 38.4 107.6 39.4 107.6 40.6C107.6 41.8 108 42.8 108.7 43.6C109.4 44.4 110.4 44.8 111.5 44.8C112.6 44.8 113.6 44.4 114.3 43.6C115 42.8 115.4 41.8 115.4 40.6C115.4 39.4 115 38.4 114.3 37.6C113.6 36.8 112.6 36.4 111.5 36.4ZM111.4 33C112.7 33 114 33.3 115.2 34C116.4 34.7 117.3 35.6 118 36.7C118.7 37.9 119 39.1 119 40.4C119 41.7 118.7 43 118 44.2C117.3 45.4 116.4 46.3 115.3 46.9C114.1 47.6 112.9 47.9 111.5 47.9C109.4 47.9 107.7 47.2 106.2 45.7C104.7 44.2 104 42.5 104 40.4C104 38.2 104.8 36.3 106.5 34.8C107.9 33.6 109.5 33 111.4 33Z" fill="white"/>
<path fill-rule="evenodd" clip-rule="evenodd" d="M0 5V7C1.2 6 2.5 5.3 4 5H0Z" fill="#B7BF10"/>
<path fill-rule="evenodd" clip-rule="evenodd" d="M11.4 19.3C12.4 18.2 13 16.7 13 14.9C13 13.1 12.5 11.7 11.4 10.6C10.4 9.5 9 9 7.4 9C5.8 9 4.5 9.6 3.5 10.7C2.5 11.8 2 13.2 2 15C2 16.8 2.5 18.2 3.6 19.3C4.6 20.4 5.9 21 7.5 21C9.1 21 10.4 20.4 11.4 19.3Z" fill="#B7BF10"/>
<path fill-rule="evenodd" clip-rule="evenodd" d="M13 7V5H9C9.4 5.1 9.7 5.2 10 5.3C11.1 5.7 12.1 6.2 13 7Z" fill="#B7BF10"/>
<path fill-rule="evenodd" clip-rule="evenodd" d="M27.5 5C28 5.1 28.4 5.3 28.9 5.5C30 6.1 31 6.9 31.8 8L28.7 11.1C27.4 9.9 26.3 9.2 25.3 9.2C24.7 9.2 24.3 9.3 24 9.6C23.7 9.8 23.5 10.1 23.5 10.5C23.5 10.8 23.6 11 23.8 11.2C24 11.4 24.5 11.7 25.3 12.1L27.1 13C29 13.9 30.3 14.9 31.1 15.9C31.8 16.9 32.2 18 32.2 19.4C32.2 21.2 31.6 22.6 30.3 23.8C29 25 27.3 25.6 25.1 25.6C22.2 25.6 19.9 24.5 18.2 22.2L21.3 18.8C21.9 19.5 22.6 20 23.4 20.5C24.2 20.9 24.9 21.1 25.5 21.1C26.2 21.1 26.7 20.9 27.1 20.6C27.5 20.3 27.7 19.9 27.7 19.5C27.7 18.7 27 18 25.5 17.3L23.8 16.5C20.6 14.9 19 12.8 19 10.4C19 8.8 19.6 7.5 20.8 6.4C21.3 5.7 22.1 5.3 23 5H17.6V25.1H12.6V23C11.6 23.9 10.7 24.6 9.7 25C8.7 25.4 7.7 25.6 6.5 25.6C4 25.6 1.9 24.7 0 22.8V48H37V5H27.5Z" fill="#B7BF10"/>
<path fill-rule="evenodd" clip-rule="evenodd" d="M80.6001 50.9L80.1001 50.3L81.4001 49.1L81.9001 49.7L80.6001 50.9Z" fill="#314863"/>
</svg>
